<?xml version="1.0" encoding="UTF-8" standalone="no"?>
<!-- Created with Inkscape (http://www.inkscape.org/) -->

<svg
   width="306.93921mm"
   height="49.023144mm"
   viewBox="0 0 306.93921 49.023144"
   version="1.1"
   id="svg5"
   inkscape:version="1.1.2 (0a00cf5339, 2022-02-04)"
   sodipodi:docname="logo.svg"
   xmlns:inkscape="http://www.inkscape.org/namespaces/inkscape"
   xmlns:sodipodi="http://sodipodi.sourceforge.net/DTD/sodipodi-0.dtd"
   xmlns="http://www.w3.org/2000/svg"
   xmlns:svg="http://www.w3.org/2000/svg">
  <sodipodi:namedview
     id="namedview7"
     pagecolor="#ffffff"
     bordercolor="#666666"
     borderopacity="1.0"
     inkscape:pageshadow="2"
     inkscape:pageopacity="0.0"
     inkscape:pagecheckerboard="0"
     inkscape:document-units="mm"
     showgrid="false"
     fit-margin-top="0"
     fit-margin-left="0"
     fit-margin-right="0"
     fit-margin-bottom="0"
     inkscape:zoom="0.57370932"
     inkscape:cx="644.9259"
     inkscape:cy="312.00469"
     inkscape:window-width="1920"
     inkscape:window-height="1053"
     inkscape:window-x="0"
     inkscape:window-y="0"
     inkscape:window-maximized="1"
     inkscape:current-layer="layer1" />
  <defs
     id="defs2" />
  <g
     inkscape:label="Layer 1"
     inkscape:groupmode="layer"
     id="layer1"
     transform="translate(48.087413,-65.987421)">
    <g
       aria-label="Dmitriy Baranov"
       id="text2871"
       style="font-size:67.1412px;line-height:1.25;font-family:Karumbi;-inkscape-font-specification:'Karumbi, Normal';fill:#ffffff;stroke-width:0.786809">
      <path
         d="m -43.857517,93.464956 q 0,-0.06714 -0.134283,-0.06714 0,0 0.06714,-0.06714 0,-0.402847 0.06714,-0.671412 1.342824,-3.424201 2.215659,-6.781261 0.872836,-3.424201 1.409965,-5.438437 0.53713,-2.081377 0.738553,-3.088495 0.201424,-1.007118 0.469989,-2.081377 0.738553,-2.551365 2.081377,-3.222777 1.342824,-0.738554 1.879953,0.939976 v 0.268565 q 0.335706,-0.604271 1.342824,-0.738553 2.014236,-0.06714 3.961331,-0.134282 2.014236,-0.06714 4.364178,0.335706 2.349942,0.335706 4.095613,1.67853 1.745671,1.275682 2.417083,3.155636 1.477106,3.827048 -1.275683,8.526932 -3.692766,6.244131 -13.763945,8.459791 -2.752789,0.60427 -4.565602,0.872835 -1.812812,0.268565 -2.887071,0.469989 -1.007118,0.201423 -2.081377,0.335706 -2.551366,0.268564 -4.028472,-0.604271 -0.335706,-0.335706 -0.402847,-0.604271 -0.06714,-0.201423 -0.201424,-0.604271 0.06714,-0.134282 0.06714,-0.402847 0.268565,-1.1414 1.141401,-1.208541 0.939976,-0.06714 1.342824,0.671412 0.402847,0.06714 0.805694,0 0.469988,0 0.872836,0 z M -33.786338,75.20255 q -1.074259,-0.06714 -1.342824,-0.939977 -0.335706,1.342824 -1.208541,1.947095 -0.335706,1.074259 -0.604271,2.215659 -0.268565,1.07426 -0.805694,2.954213 -0.469989,1.812812 -1.342824,5.169872 -0.805695,3.289919 -2.081378,6.512696 6.378414,-0.738553 9.131203,-1.611388 5.57272,-1.745671 8.39265,-5.102731 3.289919,-3.827049 2.417083,-7.385532 -0.402847,-1.611389 -1.947095,-2.618507 -1.544247,-1.074259 -3.692766,-1.208541 -2.215659,-0.134283 -6.915543,0.06714 z"
         id="path139" />
      <path
         d="m -0.35003934,84.938024 -0.0671412,2.148518 v 1.074259 q 0.20142359,-0.402847 0.40284718,-0.805694 0.20142359,-0.469989 0.73855317,-1.141401 0.60427078,-0.738553 2.14851828,-2.417083 1.5442476,-1.67853 3.4242011,-3.222777 4.6327428,-3.759907 7.1169668,-3.424201 2.551366,0.335706 3.827048,1.611388 1.342824,1.275683 1.812813,3.088495 0.469988,1.745672 0.134282,3.759907 -0.335706,2.014236 -1.275683,3.827049 -2.148518,4.229895 -5.774143,4.968448 -1.342824,0.268565 -1.67853,-0.872835 -0.335706,-1.141401 0.939977,-1.67853 2.618507,-0.738553 4.162754,-3.827048 Q 16.97239,85.206588 16.43526,82.52094 15.629566,78.089621 10.526835,80.909552 7.3040571,82.655223 4.4841269,85.878 2.8727381,87.623671 2.134185,89.167919 q -0.671412,1.544247 -1.0742592,2.349942 -1.00711795,2.081377 -2.01423591,2.887071 -0.80569439,0.402848 -1.47710639,0.06714 -0.6042707,-0.268565 -0.7385531,-1.208542 -0.335706,-2.752789 -0.067141,-5.572719 0.2685648,-2.819931 0.1342824,-5.57272 -1.4771064,1.477107 -2.1485183,3.424201 -0.671412,1.879954 -1.0742592,3.827049 -0.4028472,1.947094 -0.8728356,3.827048 -0.4699883,1.879953 -1.5442475,3.289918 -1.477106,0.738554 -2.148518,-0.671412 -0.335706,-1.074259 -0.402847,-3.357059 -0.06714,-2.282801 -0.201424,-4.767025 -0.402847,-6.311273 -1.812812,-7.116967 -0.469989,-0.335706 -1.342824,0.201423 -0.872836,0.53713 -1.208542,0.604271 -0.335706,0.06714 -0.805694,-0.201424 -0.402847,-0.134282 -0.604271,-0.537129 -0.53713,-0.939977 0.53713,-1.745671 4.431319,-2.148519 6.311272,1.074259 0.8056944,1.477106 1.0742592,3.625625 0.335706,2.148518 0.4699884,4.364177 0.6042708,-2.148518 1.4099652,-4.162754 0.8728355,-2.014236 2.1485183,-3.289919 1.2756827,-1.342823 2.1485183,-1.544247 0.8728355,-0.201424 1.4771063,0.201424 1.34282396,0.939976 1.34282396,3.558483 z"
         id="path141" />
      <path
         d="m 26.036452,79.365304 q 0.604271,-1.1414 1.611389,-0.805694 1.074259,0.335706 0.939977,1.544247 -1.007118,3.625625 -1.745671,7.25125 -0.671412,3.558483 -1.67853,7.184108 -0.53713,1.275682 -1.67853,0.939976 -1.141401,-0.335706 -0.805695,-1.745671 0.335706,-1.342824 0.671412,-2.685648 0.402848,-1.409965 0.738554,-2.752789 v -0.06714 q 0.537129,-2.215659 0.872835,-4.431319 0.402847,-2.282801 1.074259,-4.431319 z m 3.491343,-9.601191 q 1.1414,0.402847 1.1414,1.409965 0,1.007118 -1.208542,1.275683 h -0.268564 q -0.738554,-0.06714 -1.07426,-0.469989 -0.268564,-0.402847 -0.268564,-0.939976 0.06714,-1.141401 1.409965,-1.275683 z"
         id="path143" />
      <path
         d="m 36.241891,81.446681 q -1.208541,0.335706 -2.887071,0.805695 -1.342824,0.268564 -1.67853,-0.872836 -0.335706,-1.1414 0.805694,-1.611389 1.275683,-0.469988 4.297037,-1.208541 0.335706,-2.417083 1.1414,-5.102731 0.872836,-2.685648 1.275683,-4.632743 -0.134282,-0.268565 0.06714,-1.007118 0.201424,-0.738553 0.335706,-1.1414 0.201424,-0.402847 0.604271,-0.53713 0.402847,-0.201423 0.872836,-0.134282 1.007117,0.268565 1.007117,1.409965 h 0.06714 l -0.134283,0.268565 q -0.402847,2.417083 -1.074259,4.767025 -0.604271,2.349942 -1.1414,4.699884 l -0.201424,0.805694 4.229896,-0.805694 q 0.671412,-0.06714 1.074259,0.268564 0.402847,0.335706 0.469988,0.805695 0.06714,0.469988 -0.268565,0.939977 -0.268564,0.469988 -1.342824,0.671412 -3.491342,0.671411 -4.699883,0.939976 -0.738554,4.095613 -1.67853,8.056944 -0.872836,3.894189 -2.685648,7.721238 -0.805695,1.074259 -1.745671,0.537129 -0.939977,-0.537129 -0.671412,-1.67853 1.611388,-3.424201 2.417083,-6.848402 0.872835,-3.491342 1.544247,-7.116967 z"
         id="path145" />
      <path
         d="m 47.924385,80.640987 q -0.402847,-1.1414 0.134282,-1.611389 0.53713,-0.537129 0.939977,-0.537129 0.469989,0 1.007118,0.402847 1.409965,1.745671 1.342824,3.894189 -0.06714,2.148519 -0.201424,3.424201 -0.06714,1.275683 -0.134282,1.745671 0,0.402848 -0.06714,0.738554 l -0.201424,2.215659 q 2.685648,-3.894189 6.781261,-6.244131 4.095613,-2.349942 9.198344,-4.297037 1.208542,-0.134282 1.544248,0.939977 0.335706,1.007118 -0.805695,1.611389 -7.049825,2.685647 -10.004038,4.901307 -2.887071,2.21566 -4.565601,4.632743 -1.67853,2.349942 -2.685648,5.63986 -0.335706,0.805695 -1.275683,1.074259 h -0.134282 q -1.208542,-0.201423 -1.409966,-1.409965 0.06714,-1.67853 0.402848,-4.297036 0.335706,-2.618507 0.60427,-5.169873 0.671412,-6.311272 -0.469988,-7.654096 z"
         id="path147" />
      <path
         d="m 69.40953,79.365304 q 0.604271,-1.1414 1.611388,-0.805694 1.07426,0.335706 0.939977,1.544247 -1.007118,3.625625 -1.745671,7.25125 -0.671412,3.558483 -1.67853,7.184108 -0.537129,1.275682 -1.67853,0.939976 -1.1414,-0.335706 -0.805694,-1.745671 0.335706,-1.342824 0.671412,-2.685648 0.402847,-1.409965 0.738553,-2.752789 v -0.06714 q 0.53713,-2.215659 0.872836,-4.431319 0.402847,-2.282801 1.074259,-4.431319 z m 3.491342,-9.601191 q 1.1414,0.402847 1.1414,1.409965 0,1.007118 -1.208541,1.275683 h -0.268565 q -0.738553,-0.06714 -1.074259,-0.469989 -0.268565,-0.402847 -0.268565,-0.939976 0.06714,-1.141401 1.409965,-1.275683 z"
         id="path149" />
      <path
         d="m 85.523394,97.761992 q 1.879954,-0.872835 2.417083,0.335706 0.53713,1.141401 -0.671412,1.812812 -1.477106,0.67141 -3.222777,1.74567 -2.349942,5.77414 -3.961331,7.9898 -1.611389,2.2828 -2.81993,3.42421 -1.141401,1.20854 -2.148519,1.61138 -1.074259,0.46999 -1.812812,0.26857 -0.738553,-0.20142 -1.409965,-0.67141 -1.611389,-1.20854 -1.342824,-2.34995 0.469988,-2.6185 1.812812,-4.22989 1.409966,-1.61139 3.155637,-3.0885 3.491342,-2.88707 6.445555,-4.767021 1.074259,-2.484224 3.222777,-8.99692 -2.081377,2.685648 -4.632743,3.894189 -1.678529,0.738553 -3.289918,-0.537129 -1.342824,-1.074259 -1.67853,-3.088495 l -0.06714,-1.007118 q 0,-0.335706 -0.06714,-0.604271 0,-0.268565 0.06714,-0.671412 l 0.06714,-1.074259 q 0.268565,-2.349942 1.007118,-4.49846 0.604271,-1.141401 1.611389,-0.805695 1.074259,0.335706 0.939976,1.544248 -0.201423,0.537129 -0.335706,1.1414 -0.134282,0.604271 -0.268564,1.074259 -0.06714,0.469989 -0.134283,0.805695 0,0.335706 -0.06714,0.60427 -0.06714,0.201424 -0.06714,0.469989 0,0.201423 -0.134283,1.544247 -0.06714,1.342824 0.402848,2.148519 0.537129,0.805694 1.409965,0.402847 0.872835,-0.469989 2.014236,-1.812813 1.1414,-1.342823 2.215659,-2.81993 1.1414,-1.477106 2.081377,-2.81993 1.007118,-1.342824 1.611389,-1.812812 0.671412,-0.469989 1.342824,-0.268565 0.671412,0.134282 0.939977,1.074259 0.134282,2.282801 -3.155637,10.406886 -0.738553,1.812812 -1.007118,2.417083 -0.268564,0.60427 -0.335706,0.805694 0,0.201424 -0.134282,0.402847 z m -11.21258,14.368218 q 2.752789,-2.01424 5.707002,-7.92266 -6.109849,4.22989 -6.646979,7.45267 0.134283,0.13428 0.268565,0.26856 0.402847,0.46999 0.469989,0.40285 z"
         id="path151" />
      <path
         d="m 120.36959,71.509784 q 0.26856,-1.074259 1.27568,-1.074259 1.00712,0 1.40996,1.074259 v 1.477106 q 3.22278,-1.409965 7.04983,-1.544247 3.82705,-0.134283 6.64698,1.208541 1.00712,0.805695 0.53713,1.879954 -1.20854,2.081377 -5.30416,3.759907 -1.61139,0.671412 -3.22277,1.275683 -1.54425,0.604271 -2.68565,1.477106 1.20854,0.604271 2.75279,0.872836 1.54424,0.201423 3.02135,0.469988 3.55848,0.671412 4.63274,2.551366 1.9471,3.96133 -3.22277,7.654096 -3.69277,2.81993 -8.66122,3.625625 -5.97557,1.007118 -8.72835,-1.812813 -0.53713,0.06714 -1.07426,-0.402847 -0.46999,-0.469988 -0.26857,-1.67853 -0.0671,-0.134282 -0.0671,-0.268565 0,-0.201423 -0.13428,-0.60427 -0.13428,-0.469989 -0.0671,-1.208542 0.13428,-0.805694 0.13428,-1.544247 0.13428,-0.738554 0.60427,-1.007118 0.53713,-0.335706 1.07426,-0.134283 2.68565,-7.452673 3.55848,-10.809733 -0.3357,-0.671412 0.0671,-1.477106 l 0.33571,-0.335706 q 0.33571,-1.67853 0.33571,-2.81993 z m 10.2726,2.752789 q -6.17699,0 -8.12409,1.947095 -0.73855,3.558483 -2.75278,8.929779 -1.9471,5.371296 -2.41709,6.982685 l 0.26857,0.268564 q 1.34282,1.879954 5.30415,1.409966 3.49134,-0.402848 6.04271,-1.812813 4.5656,-2.484224 5.37129,-4.49846 0.46999,-1.1414 -1.1414,-1.812812 -0.67141,-0.268565 -1.40996,-0.402848 -0.67141,-0.201423 -1.07426,-0.335705 -4.90131,-0.335706 -6.98268,-1.947095 -0.87284,-0.671412 -0.93998,-1.67853 0,-1.074259 1.1414,-1.947095 1.20854,-0.872835 2.81993,-1.67853 1.67853,-0.805694 3.49134,-1.544247 1.87996,-0.805695 3.22278,-1.67853 -1.34282,-0.201424 -2.81993,-0.201424 z"
         id="path153" />
      <path
         d="m 141.8547,87.55653 q 0.53713,-1.074259 1.27568,-2.014236 0.8057,-0.939976 2.75279,-2.81993 2.01424,-1.879954 3.62563,-2.887071 1.67853,-1.007118 2.48422,-1.07426 0.8057,-0.06714 1.34283,0.268565 1.1414,0.738553 0.67141,2.21566 0.46999,-0.335706 0.87283,-0.604271 0.40285,-0.335706 1.00712,-0.402847 0.67141,-0.134283 1.1414,0.335706 0.46999,0.402847 0.33571,1.208541 -0.67141,2.484225 -1.40997,4.49846 -0.67141,2.014236 -0.40285,3.289919 0.26857,1.275683 1.9471,1.611389 1.67853,0.268565 5.84128,-0.671412 0.67142,-0.06714 1.07426,0.268565 0.40285,0.335706 0.46999,0.805694 0.0671,0.469988 -0.26856,0.939977 -0.26857,0.469988 -1.20855,0.738553 -2.41708,0.604271 -4.83416,0.604271 -2.34994,0.06714 -3.62563,-0.671412 -1.20854,-0.671412 -1.74567,-1.812813 -0.80569,-1.812812 0.20143,-5.572719 -1.00712,1.007118 -2.41709,2.551366 -1.40996,1.544247 -2.01423,2.148518 -0.60427,0.537129 -1.1414,1.007118 -0.46999,0.402847 -1.67853,0.738553 -1.1414,0.335706 -2.2828,0.268565 -1.07426,-0.06714 -1.87996,-0.738553 -0.80569,-0.671412 -0.73855,-1.879954 0.0671,-1.275683 0.60427,-2.349942 z m 9.19834,-4.095613 q -0.73855,-0.06714 -1.1414,-0.604271 -1.67853,1.342824 -3.49134,3.088495 -1.81281,1.67853 -2.41708,3.759908 2.68565,0.738553 6.17699,-4.095614 0.93998,-1.342823 1.94709,-2.417083 -0.40284,0.134283 -1.07426,0.268565 z"
         id="path155" />
      <path
         d="m 161.25845,80.640987 q -0.40284,-1.1414 0.13429,-1.611389 0.53713,-0.537129 0.93997,-0.537129 0.46999,0 1.00712,0.402847 1.40997,1.745671 1.34282,3.894189 -0.0671,2.148519 -0.20142,3.424201 -0.0671,1.275683 -0.13428,1.745671 0,0.402848 -0.0671,0.738554 l -0.20143,2.215659 q 2.68565,-3.894189 6.78126,-6.244131 4.09562,-2.349942 9.19835,-4.297037 1.20854,-0.134282 1.54425,0.939977 0.3357,1.007118 -0.8057,1.611389 -7.04982,2.685647 -10.00404,4.901307 -2.88707,2.21566 -4.5656,4.632743 -1.67853,2.349942 -2.68565,5.63986 -0.3357,0.805695 -1.27568,1.074259 h -0.13428 q -1.20854,-0.201423 -1.40997,-1.409965 0.0671,-1.67853 0.40285,-4.297036 0.33571,-2.618507 0.60427,-5.169873 0.67141,-6.311272 -0.46999,-7.654096 z"
         id="path157" />
      <path
         d="m 179.78938,87.55653 q 0.53713,-1.074259 1.27568,-2.014236 0.80569,-0.939976 2.75279,-2.81993 2.01424,-1.879954 3.62562,-2.887071 1.67853,-1.007118 2.48423,-1.07426 0.80569,-0.06714 1.34282,0.268565 1.1414,0.738553 0.67141,2.21566 0.46999,-0.335706 0.87284,-0.604271 0.40285,-0.335706 1.00712,-0.402847 0.67141,-0.134283 1.1414,0.335706 0.46999,0.402847 0.3357,1.208541 -0.67141,2.484225 -1.40996,4.49846 -0.67141,2.014236 -0.40285,3.289919 0.26857,1.275683 1.9471,1.611389 1.67853,0.268565 5.84128,-0.671412 0.67141,-0.06714 1.07426,0.268565 0.40285,0.335706 0.46999,0.805694 0.0671,0.469988 -0.26857,0.939977 -0.26856,0.469988 -1.20854,0.738553 -2.41708,0.604271 -4.83416,0.604271 -2.34995,0.06714 -3.62563,-0.671412 -1.20854,-0.671412 -1.74567,-1.812813 -0.80569,-1.812812 0.20142,-5.572719 -1.00711,1.007118 -2.41708,2.551366 -1.40996,1.544247 -2.01424,2.148518 -0.60427,0.537129 -1.1414,1.007118 -0.46998,0.402847 -1.67853,0.738553 -1.1414,0.335706 -2.2828,0.268565 -1.07426,-0.06714 -1.87995,-0.738553 -0.80569,-0.671412 -0.73855,-1.879954 0.0671,-1.275683 0.60427,-2.349942 z m 9.19834,-4.095613 q -0.73855,-0.06714 -1.1414,-0.604271 -1.67853,1.342824 -3.49134,3.088495 -1.81281,1.67853 -2.41708,3.759908 2.68564,0.738553 6.17699,-4.095614 0.93997,-1.342823 1.94709,-2.417083 -0.40285,0.134283 -1.07426,0.268565 z"
         id="path159" />
      <path
         d="m 199.79742,93.464956 q -0.87284,-2.081378 -0.73856,-5.03559 0.20143,-3.021354 0.33571,-4.49846 0.13428,-1.477107 -0.0671,-2.417084 -0.60427,-0.335706 -0.67141,-1.074259 -0.13429,-0.738553 0.3357,-1.074259 0.53713,-0.335706 0.60427,-0.335706 1.07426,-0.537129 1.87996,0.53713 1.00711,2.215659 0.3357,7.654096 -0.13428,1.342824 -0.13428,2.417083 3.02135,-4.632742 6.31127,-8.191226 2.34994,-2.484224 4.63275,-2.618506 1.1414,-0.06714 2.2828,-0.268565 1.20854,-0.268565 2.14851,0.268565 4.02848,2.417083 2.88708,7.989802 -0.46999,2.417083 -1.74568,4.565601 -2.14851,3.692766 -3.82704,4.028472 -0.60427,0.134283 -1.20855,0.268565 -0.60427,0.201424 -1.07425,-0.06714 -0.40285,-0.268565 -0.53713,-0.738553 -0.33571,-1.141401 0.87283,-1.611389 1.20854,-0.469988 2.21566,-1.611389 1.07426,-1.208541 1.74567,-2.685648 0.73856,-1.544247 1.00712,-3.088495 0.26856,-1.611388 -0.0671,-2.81993 -0.8057,-2.685648 -4.43132,-1.544248 -2.08138,0.604271 -3.55848,2.081378 -1.47711,1.477106 -2.68565,3.289918 -1.20854,1.745671 -2.34994,3.625625 -1.1414,1.812812 -2.55137,3.222777 -1.07426,0.604271 -1.94709,-0.268564 z"
         id="path161" />
      <path
         d="m 223.43111,87.489389 q 0.40285,-1.074259 0.93998,-2.417083 0.40285,-1.409965 1.07426,-2.551366 1.54425,-3.021353 3.22278,-4.297036 l 0.20142,-0.402847 q 3.55848,-3.088495 7.04983,-2.282801 1.61139,0.402847 2.81993,1.544247 1.20854,1.07426 1.74567,2.618507 1.34282,3.625625 -0.93998,7.721238 -1.4771,2.752789 -4.96845,4.431319 -2.55136,1.275683 -6.51269,1.745671 -2.21566,0.335706 -3.82705,-1.812812 -1.61139,-2.148519 -0.8057,-4.297037 z m 11.27973,1.1414 q 1.54424,-1.074259 2.55136,-2.484224 1.00712,-1.477106 1.00712,-3.759907 0,-2.282801 -1.20854,-3.424201 -1.20854,-1.1414 -2.95422,-0.872836 -0.26856,0.805695 -1.1414,1.007118 -2.55136,0.335706 -4.63274,3.558484 -1.81281,2.81993 -2.2828,5.438437 -0.13428,0.537129 0.0671,1.074259 0.26857,0.469988 0.40285,1.007118 0.40285,0.134282 0.80569,0.402847 0.40285,0.201424 1.34283,0.268565 1.00712,0.06714 2.75279,-0.53713 1.81281,-0.60427 3.28992,-1.67853 z"
         id="path163" />
      <path
         d="m 243.57343,82.453799 q -0.40284,-1.1414 0.13429,-1.611389 0.53712,-0.537129 0.93997,-0.537129 0.46999,0 1.00712,0.402847 1.47711,1.544248 1.81281,5.438437 0.13428,1.477106 0.26857,3.088495 0.20142,1.544248 0.80569,2.81993 1.27568,-1.074259 2.01424,-2.417083 0.80569,-1.342824 1.54424,-2.752789 0.8057,-1.477106 1.81282,-2.81993 1.07426,-1.409965 3.02135,-2.618507 1.1414,-0.537129 1.67853,0.402847 0.53713,0.872836 -0.13428,1.812813 -1.61139,1.007118 -2.68565,2.417083 -1.00712,1.342824 -1.94709,2.887071 -0.87284,1.544248 -1.81282,3.021354 -0.93997,1.477107 -2.34994,2.685648 -0.60427,0.335706 -1.27568,0.268565 -2.08138,-0.671412 -2.75279,-2.282801 -0.60427,-1.611389 -0.73855,-3.491342 -0.0671,-1.879954 -0.20143,-3.692766 -0.0671,-1.879953 -1.1414,-3.021354 z"
         id="path165" />
    </g>
  </g>
</svg>
