<?xml version="1.0" encoding="UTF-8" standalone="no"?>
<svg
   height="39.964031"
   aria-hidden="true"
   viewBox="0 0 19.982016 19.982015"
   version="1.1"
   width="39.964031"
   data-view-component="true"
   class="octicon octicon-mark-github"
   id="svg4"
   sodipodi:docname="github.svg"
   inkscape:version="1.1.2 (0a00cf5339, 2022-02-04)"
   xmlns:inkscape="http://www.inkscape.org/namespaces/inkscape"
   xmlns:sodipodi="http://sodipodi.sourceforge.net/DTD/sodipodi-0.dtd"
   xmlns="http://www.w3.org/2000/svg"
   xmlns:svg="http://www.w3.org/2000/svg">
  <defs
     id="defs8" />
  <sodipodi:namedview
     id="namedview6"
     pagecolor="#ffffff"
     bordercolor="#666666"
     borderopacity="1.0"
     inkscape:pageshadow="2"
     inkscape:pageopacity="0.0"
     inkscape:pagecheckerboard="0"
     showgrid="true"
     fit-margin-top="0"
     fit-margin-left="0"
     fit-margin-right="0"
     fit-margin-bottom="0"
     inkscape:zoom="20.125"
     inkscape:cx="16"
     inkscape:cy="19.925466"
     inkscape:window-width="1920"
     inkscape:window-height="1053"
     inkscape:window-x="0"
     inkscape:window-y="0"
     inkscape:window-maximized="1"
     inkscape:current-layer="svg4">
    <inkscape:grid
       type="xygrid"
       id="grid142"
       spacingx="0.25"
       spacingy="0.25"
       originx="0"
       originy="0"
       visible="false" />
  </sodipodi:namedview>
  <path
     id="rect166-28"
     style="fill:#000000;stroke-width:1"
     d="M 12.5 0 L 12.5 2.5 L 10 2.5 L 10 5 L 7.5 5 L 7.5 7.5 L 10 7.5 L 12.5 7.5 L 12.5 10 L 12.5 12.5 L 15 12.5 L 15 10 L 17.5 10 L 20 10 L 22.5 10 L 25 10 L 25 12.5 L 27.5 12.5 L 27.5 10 L 27.5 7.5 L 30 7.5 L 32.5 7.5 L 32.5 5 L 30 5 L 30 2.5 L 27.5 2.5 L 27.5 0 L 25 0 L 22.5 0 L 20 0 L 17.5 0 L 15 0 L 12.5 0 z M 32.5 7.5 L 32.5 10 L 32.5 12.5 L 30 12.5 L 30 15 L 32.5 15 L 32.5 17.5 L 32.5 20 L 32.5 22.5 L 32.5 25 L 30 25 L 30 27.5 L 27.5 27.5 L 25 27.5 L 22.5 27.5 L 22.5 30 L 25 30 L 25 32.5 L 25 35 L 25 37.5 L 27.5 37.5 L 30 37.5 L 30 35 L 32.5 35 L 32.5 32.5 L 35 32.5 L 35 30 L 37.5 30 L 37.5 27.5 L 37.5 25 L 40 25 L 40 22.5 L 40 20 L 40 17.5 L 40 15 L 37.5 15 L 37.5 12.5 L 37.5 10 L 35 10 L 35 7.5 L 32.5 7.5 z M 7.5 7.5 L 5 7.5 L 5 10 L 2.5 10 L 2.5 12.5 L 2.5 15 L 0 15 L 0 17.5 L 0 20 L 0 22.5 L 0 25 L 2.5 25 L 2.5 27.5 L 2.5 30 L 5 30 L 5 27.5 L 7.5 27.5 L 7.5 30 L 10 30 L 12.5 30 L 12.5 32.5 L 15 32.5 L 15 30 L 17.5 30 L 17.5 27.5 L 15 27.5 L 12.5 27.5 L 10 27.5 L 10 25 L 7.5 25 L 7.5 22.5 L 7.5 20 L 7.5 17.5 L 7.5 15 L 10 15 L 10 12.5 L 7.5 12.5 L 7.5 10 L 7.5 7.5 z M 7.5 30 L 5 30 L 5 32.5 L 7.5 32.5 L 7.5 30 z M 7.5 32.5 L 7.5 35 L 10 35 L 10 32.5 L 7.5 32.5 z M 10 35 L 10 37.5 L 12.5 37.5 L 15 37.5 L 15 35 L 12.5 35 L 10 35 z "
     transform="scale(0.5)" />
</svg>
